# xmcd CD database file
#
# Track frame offsets:
#	150
#	20154
#	33900
#	48215
#	63711
#	78018
#	94439
#	118126
#	130791
#	142403
#	156271
#	170045
#	184430
#	200702
#	214907
#	233516
#	244542
#	264396
#
# Disc length: 3740 seconds
#
# Revision: 0
# Processed by: cddbd v1.5.2PL0 Copyright (c) Steve Scherf et al.
# Submitted via: CDex 1.51
#
DISCID=0e0e9a12
DTITLE=Botafogo Express Trio - Trio
DYEAR=1900
DGENRE=Blues
TTITLE0=Nuestra casa esta en problemas
TTITLE1=Blues caliente
TTITLE2=pequeñas cosas
TTITLE3=Confio
TTITLE4=Punguear amor
TTITLE5=Podes vivr a tu manera
TTITLE6=Pasan cosas en el cielo
TTITLE7=Angel sin cancion
TTITLE8=hola y Chau
TTITLE9=Buscando en tu jardin
TTITLE10=Amor de zaguan
TTITLE11=Maestros de la hipocresía
TTITLE12=Donde esta el capitan
TTITLE13=Yin yang boogie
TTITLE14=el guitarrista que hacia llover
TTITLE15=krisis
TTITLE16=almas gemelas
TTITLE17=Laurel
EXTD=
EXTT0=
EXTT1=
EXTT2=
EXTT3=
EXTT4=
EXTT5=
EXTT6=
EXTT7=
EXTT8=
EXTT9=
EXTT10=
EXTT11=
EXTT12=
EXTT13=
EXTT14=
EXTT15=
EXTT16=
EXTT17=
PLAYORDER=
